<?xml version="1.0" standalone="no"?>
<!DOCTYPE svg PUBLIC "-//W3C//DTD SVG 20010904//EN"
 "http://www.w3.org/TR/2001/REC-SVG-20010904/DTD/svg10.dtd">
<svg version="1.0" xmlns="http://www.w3.org/2000/svg"
 width="475.000000pt" height="475.000000pt" viewBox="0 0 475.000000 475.000000"
 preserveAspectRatio="xMidYMid meet">
<metadata>
Created by potrace 1.14, written by Peter Selinger 2001-2017
</metadata>
<g transform="translate(0.000000,475.000000) scale(0.100000,-0.100000)"
fill="#000000" stroke="none">
<path d="M2248 4585 c-2 -1 -39 -5 -83 -9 -300 -23 -709 -152 -933 -293 -29
-18 -55 -33 -58 -33 -5 0 -66 -41 -74 -51 -3 -3 -27 -20 -55 -39 -27 -19 -52
-36 -55 -39 -3 -4 -21 -18 -40 -32 -191 -144 -427 -431 -557 -679 -126 -240
-221 -548 -250 -810 -15 -142 -9 -441 11 -546 3 -12 7 -37 10 -55 18 -115 96
-399 115 -424 5 -5 14 -27 21 -48 6 -20 29 -73 51 -117 21 -45 39 -83 39 -85
0 -24 204 -325 272 -402 67 -75 241 -246 298 -292 36 -29 74 -60 85 -69 72
-60 324 -203 460 -263 84 -36 330 -110 410 -122 17 -3 41 -8 55 -11 106 -27
440 -40 590 -23 95 10 142 17 170 22 14 3 39 8 55 11 52 9 217 52 295 78 337
108 673 324 895 578 69 78 85 98 122 151 20 29 41 57 47 62 29 26 137 209 190
320 74 155 92 200 124 305 41 133 51 174 72 310 7 41 14 82 15 90 18 97 24
357 12 485 -33 352 -142 687 -318 975 -127 209 -384 501 -529 600 -12 8 -50
36 -85 63 -35 26 -68 47 -73 47 -6 0 -12 3 -14 8 -4 10 -143 92 -156 92 -5 0
-15 7 -22 15 -6 8 -15 14 -18 13 -7 -1 -23 5 -114 46 -113 50 -345 120 -471
141 -18 3 -39 8 -47 10 -45 12 -451 29 -462 20z"/>
</g>
</svg>
